<svg xmlns="http://www.w3.org/2000/svg" xmlns:xlink="http://www.w3.org/1999/xlink" id="Layer_1" x="0px" y="0px" viewBox="0 0 512 512" style="enable-background:new 0 0 512 512;" xml:space="preserve"><style type="text/css">	.st0{fill:#353535;}</style><path class="st0" d="M469.7,208c-30.3,0-60.2-7.1-87.4-20.6l-5.1-2.5c-4-2-8.8-0.4-10.7,3.6c-0.6,1.1-0.8,2.3-0.8,3.6v48  c0,4.4,3.6,8,8,8s8-3.6,8-8v-35.2c25.2,11.5,52.4,17.9,80,19v48.4c-27.6,1.1-54.8,7.5-80,19V272c0-4.4-3.6-8-8-8s-8,3.6-8,8v32  c0,4.4,3.5,8,8,8c1.3,0,2.5-0.3,3.6-0.8l5.1-2.5c13.9-7,28.7-12.2,43.9-15.7l-7.5,29.8c-3.2,12.6,4.5,25.4,17.1,28.5  s25.4-4.5,28.5-17.1l0,0l11.7-46.9c21.8-3.5,36.6-24,33.1-45.7C506.1,222.2,489.3,208,469.7,208L469.7,208z M448.9,330.3  c-1,4-5.1,6.5-9.1,5.5c-4-1-6.5-5.1-5.5-9.1l9.2-36.8c5.3-0.7,10.6-1.3,15.9-1.6L448.9,330.3z M477.7,270.5v-45.1  c12.4,4.3,19,17.9,14.7,30.4C490,262.7,484.6,268.1,477.7,270.5z"></path><path class="st0" d="M191.9,343.4c-0.7-4.4-4.9-7.3-9.2-6.6c-27,4.5-46.7,27.8-46.7,55.2v96c0,4.4,3.6,8,8,8s8-3.6,8-8v-96  c0-19.5,14.1-36.2,33.3-39.4C189.7,351.9,192.6,347.7,191.9,343.4z"></path><path class="st0" d="M304,336h-13.8c13.8-12.1,21.8-29.6,21.8-48c0-4.4-3.6-8-8-8s-8,3.6-8,8c0,26.5-21.5,48-48,48s-48-21.5-48-48  v-31.6c11.3-1.3,22-5.7,31-12.7c11.7,12.9,28.4,20.3,45.8,20.3H304c4.4,0,8-3.6,8-8v-24c0-30.9-25.1-56-56-56h-80c-4.4,0-8,3.6-8,8  v48c0.1,12.5,6,24.3,16,31.8V288c0,19.4,8.8,37.8,24,49.9V352c0,22.1,17.9,40,40,40s40-17.9,40-40h16c22.1,0,40,17.9,40,40v96  c0,4.4,3.6,8,8,8s8-3.6,8-8v-96C359.9,361.1,334.9,336,304,336z M191.7,240.8c-1.9,0.1-3.7,0.8-5.1,2.1c-1.7-3.4-2.7-7.1-2.6-10.9  v-40h72c22.1,0,40,17.9,40,40v16h-19.2c-15.3,0-29.7-7.7-38.2-20.4c-1.3-2-3.5-3.3-5.9-3.5c-0.3,0-0.5,0-0.8,0  c-2.1,0-4.2,0.8-5.7,2.3l-1,1c-8.2,8.2-19.2,13-30.9,13.4L191.7,240.8z M248,376c-13.3,0-24-10.7-24-24v-4.7c15.4,6.3,32.6,6.3,48,0  v4.7C272,365.3,261.2,376,248,376z"></path><circle class="st0" cx="272" cy="280" r="8"></circle><circle class="st0" cx="224" cy="280" r="8"></circle><path class="st0" d="M304,408c-4.4,0-8,3.6-8,8v72c0,4.4,3.6,8,8,8s8-3.6,8-8v-72C312,411.6,308.4,408,304,408z"></path><path class="st0" d="M192,408c-4.4,0-8,3.6-8,8v72c0,4.4,3.6,8,8,8s8-3.6,8-8v-72C200,411.6,196.4,408,192,408z"></path><path class="st0" d="M71.9,248.2h15.6c4.4,0,8-3.6,8-8s-3.6-8-8-8H72c4.2-86.3,73.2-155.4,159.6-159.6v15.6c0,4.4,3.6,8,8,8  s8-3.6,8-8V72.5c54.7,2.5,104.7,31.5,133.9,77.8c2.3,3.8,7.2,5,11,2.7c3.8-2.3,5-7.2,2.7-11c-0.1-0.1-0.1-0.2-0.2-0.4  c-32.2-50.9-87.3-82.7-147.4-85.2V8.2c0-4.4-3.6-8-8-8s-8,3.6-8,8v48.2C136.3,60.7,60.1,137,55.8,232.2H7.6c-4.4,0-8,3.6-8,8  c0,4.4,3.6,8,8,8h48.4c1.7,39.8,16.2,78,41.5,108.8c2.9,3.3,8,3.7,11.3,0.8c3.2-2.8,3.7-7.6,1.1-10.9  C86.9,318.9,73.6,284.3,71.9,248.2z"></path><path class="st0" d="M135.6,308.1c4.4,0,8-3.6,8-8c0-1.4-0.4-2.8-1.1-4c-30.9-53.6-12.4-122.1,41.2-152.9  c43.9-25.3,99.3-17.9,135.1,17.9c3.2,3.1,8.2,3,11.3-0.2c3-3.1,3-8,0-11.1c-50-50-131-50.1-181-0.1c-41,40.9-49.4,104.3-20.5,154.5  C130.1,306.6,132.7,308.1,135.6,308.1L135.6,308.1z"></path></svg>