<svg xmlns="http://www.w3.org/2000/svg" xmlns:xlink="http://www.w3.org/1999/xlink" id="Layer_1" x="0px" y="0px" viewBox="0 0 512 512" style="enable-background:new 0 0 512 512;" xml:space="preserve"><style type="text/css">	.st0{fill:#353535;}</style><path class="st0" d="M321.2,216c-1.3-9.9-4.8-19.2-10.1-27.2l45.4-64.8c17.2-24.5,19.2-55,5.4-81.5S322,0,292,0h-71.7  c-0.1,0-0.2,0-0.2,0c-0.1,0-0.1,0-0.2,0c-29.9,0-56,15.9-69.9,42.4s-11.8,57,5.4,81.5l45.4,64.8c-5.3,8.1-8.8,17.3-10.1,27.3  c-47,21.9-82.1,66.8-88.8,122C90.9,429.1,164.3,512,256,512c44.1,0,86.6-18.9,116.3-52.4c6.4-7.2-4.8-17.2-11.2-9.9  c-30.6,34.6-76.2,51.9-122,46.3c-76.7-9.3-131.5-79.3-122.2-156.1c9.3-76.7,79.3-131.5,156.1-122.2c76.7,9.3,131.5,79.3,122.2,156.1  c-2.1,17.6-8.2,36.1-17.1,52.3c-4.7,8.5,8.5,15.7,13.1,7.2c9.8-17.8,16.5-38.3,18.8-57.7C418.3,307.1,380.6,243.6,321.2,216  L321.2,216z M163.4,49.3c10.3-19.8,29.1-32.3,51-34.1l33.7,111.3l-10.6,35c-10.1,3-19.2,8.3-26.7,15.4l-43.1-61.5  C153.8,95.5,152.2,70.8,163.4,49.3z M256,100.6L230,15h51.9L256,100.6z M301.1,176.8c-11.8-11.2-27.7-18-45.1-18c-0.7,0-1.3,0-2,0.1  l43.5-143.7c21.9,1.8,40.7,14.3,51,34.1c11.2,21.5,9.6,46.2-4.3,66L301.1,176.8z M256,173.8c22.7,0,42,15,48.4,35.6  c-9.5-3.1-19.4-5.4-29.7-6.6c-23.4-2.8-46.2-0.3-67.2,6.6C214,188.8,233.3,173.8,256,173.8z"></path><path class="st0" d="M256,250.5c-58.6,0-106.4,47.7-106.4,106.4S197.3,463.2,256,463.2s106.4-47.7,106.4-106.4  S314.6,250.5,256,250.5L256,250.5z M256,448.2c-50.4,0-91.3-41-91.3-91.3s41-91.3,91.3-91.3s91.3,41,91.3,91.3  S306.3,448.2,256,448.2L256,448.2z"></path><path class="st0" d="M307.4,341.8l-23-12.6c-0.4-0.2-0.6-0.5-0.8-0.8l-12.6-23c-3-5.5-8.8-8.9-15-8.9c-6.3,0-12,3.4-15,8.9l-12.6,23  c-0.2,0.4-0.5,0.6-0.8,0.8l-23,12.6c-5.5,3-8.9,8.8-8.9,15c0,6.3,3.4,12,8.9,15l23,12.6c0.4,0.2,0.6,0.5,0.8,0.8l12.6,23  c3,5.5,8.7,8.9,15,8.9c6.3,0,12-3.4,15-8.9l12.6-23c0.2-0.4,0.5-0.6,0.8-0.8l23-12.6c5.5-3,8.9-8.8,8.9-15  C316.3,350.6,312.8,344.8,307.4,341.8L307.4,341.8z M300.2,358.7l-23,12.6c-2.9,1.6-5.2,3.9-6.8,6.8l-12.6,23  c-0.5,0.9-1.3,1.1-1.8,1.1s-1.3-0.2-1.8-1.1l-12.6-23c-1.6-2.9-3.9-5.2-6.8-6.8l-23-12.6c-0.9-0.5-1.1-1.3-1.1-1.8  c0-0.6,0.2-1.3,1.1-1.8l23-12.6c2.9-1.6,5.2-3.9,6.8-6.8l12.6-23c0.5-0.9,1.3-1.1,1.8-1.1s1.3,0.2,1.8,1.1l12.6,23  c1.6,2.9,3.9,5.2,6.8,6.8l23,12.6c0.9,0.5,1.1,1.3,1.1,1.8C301.2,357.4,301.1,358.2,300.2,358.7L300.2,358.7z"></path></svg>