<svg xmlns="http://www.w3.org/2000/svg" xmlns:xlink="http://www.w3.org/1999/xlink" id="Layer_1" x="0px" y="0px" viewBox="0 0 512 512" style="enable-background:new 0 0 512 512;" xml:space="preserve"><style type="text/css">	.st0{fill:#353535;}</style><path class="st0" d="M368,176c-3,0-6,0.6-8.8,1.7c-3.5-12.8-16.6-20.3-29.4-16.9c-0.6,0.2-1.2,0.3-1.7,0.5V160c0-13.3-10.8-24-24-24  c-10.8,0-20.3,7.2-23.1,17.7c-12.3-4.9-26.3,1.1-31.1,13.4c-1.1,2.8-1.7,5.8-1.7,8.9v67.1l-8.4,4.2c-21.1,10.5-29.6,36.2-19.1,57.3  c3.3,6.6,8.3,12.3,14.5,16.4l21.9,14.6c4.5,3,7.1,8,7.1,13.3V496h16V348.8c0-10.7-5.3-20.7-14.3-26.6l-21.9-14.6  c-12.3-8.2-15.6-24.7-7.4-37c2.6-3.9,6.1-7,10.3-9.1l1.2-0.6V280h16V176c0-4.4,3.6-8,8-8s8,3.6,8,8v72h16v-88c0-4.4,3.6-8,8-8  s8,3.6,8,8v88h16v-64c0-4.4,3.6-8,8-8s8,3.6,8,8v72h16v-56c0-4.4,3.6-8,8-8s8,3.6,8,8v68.2c0,22.3-5.2,44.3-15.2,64.2  c-0.6,1.1-0.8,2.3-0.8,3.6v160h16V337.9c10.5-21.7,16-45.5,16-69.6V200C392,186.8,381.2,176,368,176L368,176z"></path><path class="st0" d="M168,305.9c0-8.5-3.4-16.6-9.4-22.6l-14.8-14.8c-5-5-7.8-11.8-7.8-18.9V208c0-4.4,3.6-8,8-8s8,3.6,8,8v24  c0,3.4,2.2,6.5,5.5,7.6l1.2,0.4c10.3,3.4,17.3,13.1,17.3,24h16c0-16.1-9.4-30.8-24-37.5V144c0-4.4,3.6-8,8-8s8,3.6,8,8v64h16v-96  c0-4.4,3.6-8,8-8s8,3.6,8,8v96h16v-72c0-4.4,3.6-8,8-8s8,3.6,8,8v8h16v-8c0-13.3-10.7-24-24-24c-2.7,0-5.4,0.5-8,1.4V112  c0-13.3-10.7-24-24-24s-24,10.7-24,24v9.4c-12.5-4.4-26.2,2.1-30.6,14.6c-0.9,2.6-1.4,5.3-1.4,8v41.4c-12.5-4.4-26.2,2.1-30.6,14.6  c-0.9,2.6-1.4,5.3-1.4,8v41.6c0,11.3,4.5,22.2,12.5,30.2l14.8,14.8c3,3,4.7,7.1,4.7,11.3V320h-8c-4.4,0-8,3.6-8,8v168h16V336h64v-16  h-48V305.9z"></path><path class="st0" d="M168,352h16v16h-16V352z"></path><path class="st0" d="M248,16h16v72h-16V16z"></path><path class="st0" d="M129.1,52.2l13.9-8L170.5,92l-13.9,8L129.1,52.2z"></path><path class="st0" d="M44.2,142.9l8-13.9l62.4,36l-8,13.9L44.2,142.9z"></path><path class="st0" d="M16,248h72v16H16V248z"></path><path class="st0" d="M44.1,369.1l62.4-36l8,13.9l-62.4,36L44.1,369.1z"></path><path class="st0" d="M397.5,346.9l8-13.9l62.4,36l-8,13.9L397.5,346.9z"></path><path class="st0" d="M424,248h72v16h-72V248z"></path><path class="st0" d="M397.5,165.1l62.4-36l8,13.9l-62.4,36L397.5,165.1z"></path><path class="st0" d="M333.1,106.5l36-62.4l13.9,8l-36,62.4L333.1,106.5z"></path><path class="st0" d="M190.3,41.7l15.5-4.1l8.3,30.9l-15.5,4.1L190.3,41.7z"></path><path class="st0" d="M91.9,103.3L103.2,92l22.6,22.6l-11.3,11.3L91.9,103.3z"></path><path class="st0" d="M37.6,205.8l4.1-15.5l30.9,8.3l-4.1,15.5L37.6,205.8z"></path><path class="st0" d="M37.6,306.3l30.9-8.3l4.1,15.5l-30.9,8.3L37.6,306.3z"></path><path class="st0" d="M298,68.5l8.3-30.9l15.5,4.1l-8.3,30.9L298,68.5z"></path><path class="st0" d="M386.1,114.6L408.7,92l11.3,11.3l-22.6,22.6L386.1,114.6z"></path><path class="st0" d="M439.5,198.5l30.9-8.3l4.1,15.5l-30.9,8.3L439.5,198.5z"></path><path class="st0" d="M439.5,313.4l4.1-15.5l30.9,8.3l-4.1,15.5L439.5,313.4z"></path></svg>