<svg xmlns="http://www.w3.org/2000/svg" xmlns:xlink="http://www.w3.org/1999/xlink" id="Layer_1" x="0px" y="0px" viewBox="0 0 512 512" style="enable-background:new 0 0 512 512;" xml:space="preserve"><style type="text/css">	.st0{fill:#353535;}</style><g id="Outline">	<path class="st0" d="M96,168h36.7l-5.4,5.4c-9.8,9.8-9.8,25.6,0,35.3s25.6,9.8,35.3,0l40.7-40.7H216v8c0,4.4,3.6,8,8,8h80v-16h-72   V72h208V56H224c-4.4,0-8,3.6-8,8v8h-12.8c-16.6-15.5-38.5-24.1-61.2-24H96c-17.7,0-32,14.3-32,32v56C64,153.7,78.3,168,96,168z    M80,80c0-8.8,7.2-16,16-16h46.1c19.6-0.1,38.4,7.7,52.3,21.7c1.5,1.5,3.5,2.3,5.7,2.3h16v64h-16c-2.1,0-4.2,0.8-5.7,2.3l-43,43   c-3.5,3.5-9.2,3.5-12.7,0s-3.5-9.2,0-12.7l19-19c3.1-3.1,3.1-8.2,0-11.3c-1.5-1.5-3.5-2.3-5.7-2.3H96c-8.8,0-16-7.2-16-16V80z"></path>	<path class="st0" d="M248,88h16v16h-16V88z"></path>	<path class="st0" d="M294.1,383.2l-18.3-31.8l7.3,2c13.3,3.6,27-4.2,30.6-17.6c3.6-13.3-4.2-27-17.6-30.6c-0.1,0-0.1,0-0.2,0   l-55.6-14.9l-6.3-11l6.9-4c3.8-2.2,5.1-7.1,2.9-10.9l-40.7-70.5l-13.9,8l36.7,63.6l-83.1,48l-104-180.1l-13.9,8l108,187.1   c2.2,3.8,7.1,5.1,10.9,2.9c0,0,0,0,0,0l6.9-4l6.4,11.1c-5.1,22.1-1.6,45.3,9.8,65l23,39.9c4.2,7.4,11.2,12.7,19.4,14.9   c2.7,0.7,5.5,1.1,8.3,1.1c5.6,0,11.1-1.5,15.9-4.3l48.5-28C297.6,418.1,302.9,398.5,294.1,383.2L294.1,383.2z M274.4,413.1   l-48.5,28c-7.7,4.4-17.4,1.8-21.9-5.9l-23-39.9c-9.9-17-12.5-37.2-7.4-56.1c0.5-2,0.3-4.2-0.8-6.1l-8-13.9l55.4-32l8,13.9   c1.1,1.8,2.8,3.2,4.9,3.7l58.8,15.8c4.8,1.2,7.7,6.1,6.4,10.9c-1.2,4.8-6.1,7.7-10.9,6.4c-0.1,0-0.1,0-0.2,0l-26-7   c-4.3-1.1-8.7,1.4-9.8,5.7c-0.5,2.1-0.3,4.2,0.8,6.1l28,48.5C284.6,398.9,282,408.6,274.4,413.1L274.4,413.1z"></path>	<path class="st0" d="M140.8,277.7l13.9-8l8,13.9l-13.9,8L140.8,277.7z"></path>	<path class="st0" d="M472,122.4l-48.5-28c-15.3-8.8-34.9-3.6-43.7,11.7l-18.3,31.8l-2-7.3c-3.6-13.3-17.4-21.1-30.7-17.5   c-13.2,3.6-21.1,17.2-17.6,30.4l14.9,55.6l-6.3,11l-6.9-4c-3.8-2.2-8.7-0.9-10.9,2.9l-40.3,69.8l13.9,8l36.3-62.8l83.1,48   L290.9,452l13.9,8l108-187.1c2.2-3.8,0.9-8.7-2.9-10.9l-6.9-4l6.4-11.1c21.7-6.6,40.1-21.3,51.4-41l23-39.9   C492.5,150.8,487.3,131.2,472,122.4L472,122.4z M469.9,158.1l-23,39.9c-9.8,17-25.9,29.4-44.9,34.4c-2,0.5-3.8,1.9-4.9,3.7l-8,13.9   l-55.4-32l8-13.9c1.1-1.8,1.3-4,0.8-6.1l-15.8-58.8c-1.3-4.8,1.5-9.7,6.3-11c4.8-1.3,9.7,1.5,11,6.3c0,0,0,0.1,0,0.1l7,26   c1.1,4.3,5.5,6.8,9.8,5.7c2-0.5,3.8-1.9,4.9-3.7l28-48.5c4.4-7.6,14.2-10.3,21.9-5.9l48.5,28C471.6,140.7,474.3,150.4,469.9,158.1   L469.9,158.1z"></path>	<path class="st0" d="M351.2,283.6l8-13.9l13.9,8l-8,13.9L351.2,283.6z"></path></g></svg>